<svg xmlns="http://www.w3.org/2000/svg" viewBox="0 0 236 60.65"><defs><style>.cls-1{fill:#0089b6;}.cls-2{fill:#00a6e3;}</style></defs><title>logo-pycsw</title><g id="Layer_2" data-name="Layer 2"><g id="Layer_1-2" data-name="Layer 1"><path class="cls-1" d="M22.79,0a24.56,24.56,0,0,0-9.92,2A25,25,0,0,0,4.23,8.57,29.73,29.73,0,0,0,0,20.24V57.11a3.54,3.54,0,0,0,3.54,3.54h0a3.54,3.54,0,0,0,3.54-3.54V38.79a22.46,22.46,0,0,0,6.31,4.67,21.64,21.64,0,0,0,9.55,2.13,21.29,21.29,0,0,0,15.73-6.7,22.45,22.45,0,0,0,6.53-16.2A22.71,22.71,0,0,0,38.8,6.83,21.57,21.57,0,0,0,22.79,0ZM38,22.87a16.36,16.36,0,0,1-2.15,8,15.48,15.48,0,0,1-21.43,5.94,14.74,14.74,0,0,1-5.75-5.71A16.45,16.45,0,0,1,6.7,23,15.84,15.84,0,0,1,11.24,11.5a14.85,14.85,0,0,1,11.1-4.61A15.35,15.35,0,0,1,30.2,9a15.64,15.64,0,0,1,5.71,5.86A16.06,16.06,0,0,1,38,22.87Z"/><path class="cls-1" d="M70.61,31.77,57.76,3A3.47,3.47,0,0,0,54.59.91h0a3.47,3.47,0,0,0-3.17,4.87L66.77,40.37,60.49,54.76a3.47,3.47,0,0,0,3.18,4.86h0a3.47,3.47,0,0,0,3.18-2.08L89.48,5.82A3.5,3.5,0,0,0,86.27.91h0A3.5,3.5,0,0,0,83.06,3Z"/><path class="cls-2" d="M118.33,5.75a17.78,17.78,0,0,1,13.74,5.78,2.57,2.57,0,0,0,3.25.4h0A2.62,2.62,0,0,0,136,8.07a16.85,16.85,0,0,0-2.9-2.8A22.17,22.17,0,0,0,126.53,2a25.58,25.58,0,0,0-8-1.26,24.39,24.39,0,0,0-11.93,2.91,21.61,21.61,0,0,0-8.37,8.11A21.81,21.81,0,0,0,95.2,23a20.38,20.38,0,0,0,6.53,15.26,22.68,22.68,0,0,0,16.38,6.28,26,26,0,0,0,11.51-2.46,20.35,20.35,0,0,0,6.21-4.59,2.6,2.6,0,0,0-.54-3.91h0a2.55,2.55,0,0,0-3.23.33,18.21,18.21,0,0,1-13.71,5.75,18.54,18.54,0,0,1-9.06-2.21,16.09,16.09,0,0,1-6.35-6.26,17.06,17.06,0,0,1-2.32-8.61,16.81,16.81,0,0,1,5.25-12.15A17.47,17.47,0,0,1,118.33,5.75Z"/><path class="cls-2" d="M158.7,19.79q-4.91-2.51-6.43-4.45a5.81,5.81,0,0,1-1.56-3.8,5.35,5.35,0,0,1,1.86-4.07,6.41,6.41,0,0,1,4.49-1.71,11,11,0,0,1,6.74,2.72,2.47,2.47,0,0,0,3.3-.23h0a2.51,2.51,0,0,0-.26-3.69Q162,.72,157.29.72a11.29,11.29,0,0,0-8.16,3.14,10.51,10.51,0,0,0-3.25,7.9,10.69,10.69,0,0,0,2.05,6.47q2,2.89,7.69,5.75,5.25,2.7,6.73,4.49a6.25,6.25,0,0,1,1.48,4.11,6.39,6.39,0,0,1-2.26,4.85,7.8,7.8,0,0,1-5.46,2.07,10.43,10.43,0,0,1-6.82-2.78,2.64,2.64,0,0,0-3.71.21h0a2.6,2.6,0,0,0,.13,3.62A14.77,14.77,0,0,0,149.44,43a16.09,16.09,0,0,0,6.91,1.54,12.28,12.28,0,0,0,9-3.56,11.72,11.72,0,0,0,3.59-8.65,11.05,11.05,0,0,0-2.09-6.58Q164.71,22.87,158.7,19.79Z"/><path class="cls-2" d="M231,4.42,218.7,33.18,205.39,2.85h-1L191,33.18,178.91,4.4a2.53,2.53,0,0,0-2.33-1.55h0a2.53,2.53,0,0,0-2.33,3.53l16.3,38.21h1l13.39-29.87,13.24,29.87h1.07L235.78,6.46a2.58,2.58,0,0,0-2.37-3.61h0A2.58,2.58,0,0,0,231,4.42Z"/></g></g></svg>