<svg xmlns="http://www.w3.org/2000/svg" viewBox="0 0 156.11 239.83"><defs><style>.cls-1{fill:#005e76;}</style></defs><title>logo-vertica-neg</title><g id="Layer_2" data-name="Layer 2"><g id="Layer_1-2" data-name="Layer 1"><path class="cls-1" d="M72.51,19.76c1.33-.29,2.66-.52,4-.73l-1.38-6.4a4.06,4.06,0,0,0-7.93,1.71l1.38,6.4C69.87,20.38,71.18,20.05,72.51,19.76Z"/><path class="cls-1" d="M101.24,153.05c-1.33.29-2.66.52-4,.73l1.38,6.4a4.06,4.06,0,0,0,7.93-1.71l-1.38-6.4C103.88,152.43,102.57,152.76,101.24,153.05Z"/><path class="cls-1" d="M88.32,174.62A88.42,88.42,0,0,1,0,86.3C0,45.16,29.12,8.89,69.23.05a2.25,2.25,0,0,1,1,4.39C32.13,12.83,4.49,47.25,4.49,86.3a83.9,83.9,0,0,0,101.48,82,2.25,2.25,0,0,1,.94,4.39A89,89,0,0,1,88.32,174.62Z"/><path class="cls-1" d="M19.13,200.91a15.76,15.76,0,0,0-6.37,1.3,16,16,0,0,0-5.54,4.19A19.08,19.08,0,0,0,4.5,213.9v23.66a2.27,2.27,0,0,0,2.27,2.27h0A2.27,2.27,0,0,0,9,237.56V225.8a14.41,14.41,0,0,0,4.05,3,13.88,13.88,0,0,0,6.13,1.36,13.66,13.66,0,0,0,10.09-4.3,14.4,14.4,0,0,0,4.19-10.4,14.57,14.57,0,0,0-4.11-10.18A13.84,13.84,0,0,0,19.13,200.91Zm9.79,14.67a10.5,10.5,0,0,1-1.38,5.16,9.93,9.93,0,0,1-13.75,3.81,9.46,9.46,0,0,1-3.69-3.67,10.56,10.56,0,0,1-1.3-5.21,10.16,10.16,0,0,1,2.91-7.4,9.53,9.53,0,0,1,7.12-3,9.85,9.85,0,0,1,5,1.35,10,10,0,0,1,3.67,3.76A10.3,10.3,0,0,1,28.92,215.58Z"/><path class="cls-1" d="M49.81,221.3l-8.24-18.48a2.22,2.22,0,0,0-2-1.32h0a2.22,2.22,0,0,0-2,3.13l9.85,22.19-4,9.23a2.23,2.23,0,0,0,2,3.12h0a2.23,2.23,0,0,0,2-1.34l14.52-33.19a2.25,2.25,0,0,0-2.06-3.15h0a2.25,2.25,0,0,0-2.06,1.35Z"/><path class="cls-1" d="M80.43,204.6a11.41,11.41,0,0,1,8.82,3.71,1.65,1.65,0,0,0,2.08.26h0a1.68,1.68,0,0,0,.43-2.48,10.81,10.81,0,0,0-1.86-1.8,14.23,14.23,0,0,0-4.21-2.11,16.42,16.42,0,0,0-5.11-.81,15.65,15.65,0,0,0-7.65,1.87,14.13,14.13,0,0,0-7.34,12.44,13.08,13.08,0,0,0,4.19,9.79,14.56,14.56,0,0,0,10.51,4,16.65,16.65,0,0,0,7.39-1.58,13.06,13.06,0,0,0,4-2.95,1.67,1.67,0,0,0-.35-2.51h0a1.64,1.64,0,0,0-2.07.21,11.69,11.69,0,0,1-8.8,3.69A11.9,11.9,0,0,1,74.62,225a10.33,10.33,0,0,1-4.08-4,11,11,0,0,1-1.49-5.52,10.79,10.79,0,0,1,3.37-7.8A11.21,11.21,0,0,1,80.43,204.6Z"/><path class="cls-1" d="M106.34,213.61a13.06,13.06,0,0,1-4.13-2.86,3.73,3.73,0,0,1-1-2.44,3.43,3.43,0,0,1,1.2-2.61,4.11,4.11,0,0,1,2.88-1.1,7,7,0,0,1,4.32,1.74,1.58,1.58,0,0,0,2.12-.15h0a1.61,1.61,0,0,0-.17-2.37,9.87,9.87,0,0,0-6.13-2.45,7.24,7.24,0,0,0-5.24,2,6.74,6.74,0,0,0-2.09,5.07,6.86,6.86,0,0,0,1.32,4.15,13.19,13.19,0,0,0,4.93,3.69,15.11,15.11,0,0,1,4.32,2.88,4,4,0,0,1,1,2.64,4.1,4.1,0,0,1-1.45,3.11,5,5,0,0,1-3.5,1.33,6.69,6.69,0,0,1-4.38-1.78,1.7,1.7,0,0,0-2.38.13h0a1.67,1.67,0,0,0,.09,2.32,9.48,9.48,0,0,0,2.39,1.58,10.33,10.33,0,0,0,4.43,1,7.88,7.88,0,0,0,5.77-2.28,7.52,7.52,0,0,0,2.31-5.55,7.09,7.09,0,0,0-1.34-4.22A15.07,15.07,0,0,0,106.34,213.61Z"/><path class="cls-1" d="M152.76,203.75l-7.92,18.46-8.54-19.46h-.61l-8.59,19.46-7.78-18.46a1.63,1.63,0,0,0-1.5-1h0a1.63,1.63,0,0,0-1.5,2.26l10.46,24.52h.63L136,210.36l8.5,19.17h.68l10.62-24.47a1.66,1.66,0,0,0-1.52-2.31h0A1.66,1.66,0,0,0,152.76,203.75Z"/><path class="cls-1" d="M154.54,71.76A69.39,69.39,0,0,0,86.95,17.09a69.68,69.68,0,0,0-14.68,1.57,69.2,69.2,0,1,0,82.26,53.09Zm-30.75,4.56a5.41,5.41,0,0,0-3.34-2.59A122.79,122.79,0,0,0,112.3,51l-.25-.51a5.41,5.41,0,0,0,.93-2l19.37-4.18a5.39,5.39,0,0,0,4.23,1,5,5,0,0,0,.52-.13A61.82,61.82,0,0,1,149,67.75a5.41,5.41,0,0,0-2.6,3.69ZM97.89,116.2A5.42,5.42,0,0,0,95,114.34L89.81,90.43a5.41,5.41,0,0,0,2.34-3.15l22.74-4.9a5.41,5.41,0,0,0,3.58,2,127.69,127.69,0,0,1,2,24,5.39,5.39,0,0,0-3.78,3.8Zm-27.65,6a5.4,5.4,0,0,0-5-2,115.75,115.75,0,0,1-8.08-22.74,5.4,5.4,0,0,0,2.42-3.16l23.16-5a5.42,5.42,0,0,0,3.05,1.86L91,114.95a5.41,5.41,0,0,0-2.49,3.28ZM42,128.25a5.39,5.39,0,0,0-4.59-1.15,5,5,0,0,0-.84.29,64.21,64.21,0,0,1-12-22.52,5.41,5.41,0,0,0,2.21-3.52l23.51-5.07A5.41,5.41,0,0,0,53,98a123.81,123.81,0,0,0,8.39,23.66l.29.59a5.41,5.41,0,0,0-.93,1.92ZM75.66,56.52a5.43,5.43,0,0,0,3.13,2l4.95,23a5.42,5.42,0,0,0-2.19,4L59.17,90.24a5.4,5.4,0,0,0-4.08-2.8,127.09,127.09,0,0,1-1.84-23,5.4,5.4,0,0,0,3.82-3.93Zm27.72-6a5.4,5.4,0,0,0,5.12,2.07,115.82,115.82,0,0,1,7.8,21.7,5.4,5.4,0,0,0-2.6,4.17l-22,4.75a5.4,5.4,0,0,0-4-2.75L82.78,57.83a5.41,5.41,0,0,0,2.43-3.36ZM94.7,21.75a64.4,64.4,0,0,1,35.09,15.77l.73.65a5.31,5.31,0,0,0-.3,2.3l-18,3.88a5.41,5.41,0,0,0-4.76-2.48A63,63,0,0,0,93.3,25.07L88.16,21Zm-17.06.74c8.65.7,17.89,8.21,26,21.14l0,0a5.42,5.42,0,0,0-1.32,2.82L84.52,50.33a5.41,5.41,0,0,0-3.88-2.46L75.12,22.29ZM69,24.36l2.2-1.22,5.55,25.74a5.42,5.42,0,0,0-2.12,3.59L56.41,56.39A5.42,5.42,0,0,0,54,54.28C55.82,39.52,61.28,28.62,69,24.36ZM53.11,30.71l5.63-3.41-3,5.86a64.8,64.8,0,0,0-6,21.08,5.41,5.41,0,0,0-3.3,4.29L28.7,62.36a5.35,5.35,0,0,0-1.49-1.88l.42-.93A64.41,64.41,0,0,1,53.11,30.71ZM23.87,70.09A5.09,5.09,0,0,0,24.94,70a5.41,5.41,0,0,0,3.93-3.37l18.7-4A5.42,5.42,0,0,0,49,63.86v.75a122.65,122.65,0,0,0,2.06,24,5.41,5.41,0,0,0-2,3.84l-23.13,5a5.4,5.4,0,0,0-3.43-2.22A66.35,66.35,0,0,1,23.87,70.09ZM79,150.94a64.41,64.41,0,0,1-35.09-15.77l-.51-.45a5.36,5.36,0,0,0,.52-2.6l17.48-3.77a5.4,5.4,0,0,0,4.89,2.58,62.92,62.92,0,0,0,14.12,16.69l5.14,4.11Zm17.06-.75c-8.64-.7-17.87-8.2-26-21.11a5.41,5.41,0,0,0,1.29-2.89l17.68-3.81A5.4,5.4,0,0,0,93.12,125L98.6,150.4Zm8.67-1.87-2.2,1.22L97,123.87a5.41,5.41,0,0,0,2-3.64l18.18-3.92a5.41,5.41,0,0,0,2.48,2.21C117.87,133.23,112.42,144.09,104.75,148.33ZM120.61,142,115,145.39l3-5.86a64.69,64.69,0,0,0,6-20.95,5.41,5.41,0,0,0,3.33-4.42l17.67-3.81a5.35,5.35,0,0,0,1.53,2l-.37.83A64.42,64.42,0,0,1,120.61,142Zm29.21-39.25a5.06,5.06,0,0,0-.91.07,5.41,5.41,0,0,0-4,3.28l-18.8,4.05a5.42,5.42,0,0,0-1.33-1.18v-.88a122.62,122.62,0,0,0-2.23-24.95,5.41,5.41,0,0,0,1.79-2.78l22.88-4.93a5.42,5.42,0,0,0,4.1,2.4A66.33,66.33,0,0,1,149.82,102.73Z"/></g></g></svg>