<svg xmlns="http://www.w3.org/2000/svg" viewBox="0 0 156.11 174.62"><defs><style>.cls-1{fill:#fff;}.cls-2,.cls-3,.cls-4,.cls-6{fill:#00a6e3;}.cls-2{opacity:0.2;}.cls-3{opacity:0.6;}.cls-4{opacity:0.4;}.cls-5{opacity:0.8;}.cls-7{fill:#e2ebef;}.cls-8{fill:#0089b6;}</style></defs><title>logo-symbol-darkbg</title><g id="Layer_2" data-name="Layer 2"><g id="Layer_1-2" data-name="Layer 1"><path class="cls-1" d="M140.08,126.42c.33-.44.65-.89,1-1.33s.49-.68.73-1,.6-.89.9-1.34l.71-1.1q.42-.67.83-1.36c.23-.39.46-.79.68-1.19s.51-.89.75-1.35.5-1,.74-1.44q.51-1,1-2.05c.25-.53.49-1.06.72-1.6s.35-.84.52-1.27.4-1,.6-1.51.32-.85.47-1.29.37-1.07.54-1.6.27-.82.39-1.23c.19-.63.37-1.27.54-1.91.09-.33.18-.65.27-1q.36-1.43.66-2.88c.06-.29.11-.59.17-.88.14-.71.27-1.42.38-2.14.06-.37.11-.75.16-1.12q.14-1,.25-2c0-.38.08-.76.12-1.14.07-.71.12-1.42.16-2.13,0-.33,0-.66.06-1,0-1,.08-2.09.08-3.15s0-2.07-.08-3.09c0-.18,0-.36,0-.54q-.08-1.47-.22-2.93c0-.19,0-.37-.06-.56-.11-1-.23-2-.38-3l0-.17c-.15-1-.32-1.9-.51-2.83l-.09-.48q-.29-1.41-.64-2.79l-.15-.56c-.24-.93-.5-1.85-.79-2.77l-.1-.3q-.41-1.3-.87-2.59l-.15-.42q-.49-1.32-1-2.61l-.23-.55c-.37-.86-.75-1.71-1.15-2.55l-.19-.39q-.58-1.19-1.2-2.35l-.19-.35c-.44-.81-.91-1.61-1.38-2.4l-.32-.53q-.72-1.16-1.47-2.3l-.3-.43q-.73-1.07-1.51-2.12l-.2-.27c-.55-.73-1.12-1.45-1.7-2.16l-.4-.49q-.86-1-1.76-2l-.4-.44q-.89-1-1.82-1.91l-.17-.18c-.65-.65-1.31-1.27-2-1.89L131.5,37q-1-.89-2-1.75l-.5-.41c-.71-.58-1.43-1.15-2.16-1.7h0A66.19,66.19,0,0,0,87,19.9c-.83,0-1.64,0-2.46.06-.35-.38-.7-.74-1.07-1.1l-13,1.62L54.36,26.78,47,30.93a21.93,21.93,0,0,0-.29,2.6A66.46,66.46,0,0,0,25.2,110.93l.22.57c.27.66.55,1.31.84,2l.32.71q.44.95.9,1.88l.34.66c.33.64.66,1.28,1,1.9l.17.3a66.55,66.55,0,0,0,3.84,6l.46.64c.38.52.77,1,1.17,1.54l.61.78q.58.72,1.18,1.43l.69.79c.4.46.81.92,1.22,1.37l.69.72q2.14,2.24,4.48,4.28l1,.83c.41.34.82.67,1.24,1l1.07.84,1.24.93L49,141l1.22.84c.44.29.89.58,1.34.86s.75.48,1.14.71q1.2.73,2.44,1.4l1,.51c.56.29,1.11.58,1.68.86l1.15.54,1.59.72,1.19.5,1.65.65,1.16.43c.62.22,1.24.43,1.87.63l1,.33c1,.29,1.91.57,2.88.82l.52.12c.82.2,1.64.4,2.47.57l1.06.2c.66.13,1.33.25,2,.36l1.17.18q1,.14,2,.25l1.17.12c.71.07,1.42.12,2.13.16l1,.07c1,0,2.1.08,3.16.08h0c1,0,2,0,3-.08l1-.05q1.07-.06,2.13-.16l1-.09c.93-.1,1.85-.21,2.76-.35l1.14-.19,1.68-.3,1.45-.3,1.31-.3a66.51,66.51,0,0,0,37.59-24.63h0Z"/><circle class="cls-2" cx="86.99" cy="86.39" r="66.49"/><path class="cls-1" d="M72.51,19.76c1.33-.29,2.66-.52,4-.73l-1.38-6.4a4.06,4.06,0,0,0-7.93,1.71l1.38,6.4C69.87,20.38,71.18,20.05,72.51,19.76Z"/><path class="cls-1" d="M101.24,153.05c-1.33.29-2.66.52-4,.73l1.38,6.4a4.06,4.06,0,0,0,7.93-1.71l-1.38-6.4C103.88,152.43,102.57,152.76,101.24,153.05Z"/><path class="cls-1" d="M88.32,174.62A88.42,88.42,0,0,1,0,86.3C0,45.16,29.12,8.89,69.23.05a2.25,2.25,0,0,1,1,4.39C32.13,12.83,4.49,47.25,4.49,86.3a83.9,83.9,0,0,0,101.48,82,2.25,2.25,0,0,1,.94,4.39A89,89,0,0,1,88.32,174.62Z"/><path class="cls-3" d="M63.08,95.81a54.06,54.06,0,0,0-40.33,7.77A66.52,66.52,0,0,0,106.32,150c0-.43,0-.85,0-1.27a54,54,0,0,0-2.21-15.3A51.53,51.53,0,0,1,63.08,95.81Z"/><path class="cls-4" d="M126.82,33.15A51.5,51.5,0,0,0,63.08,95.81a54.08,54.08,0,0,1,41.06,37.63,51.77,51.77,0,0,0,8.74.75,51.23,51.23,0,0,0,27.2-7.77,66.49,66.49,0,0,0-13.26-93.27Z"/><g class="cls-5"><path class="cls-6" d="M104.14,133.44A54.08,54.08,0,0,0,63.08,95.81c-.27-1-.25-1,0,.06a51.52,51.52,0,0,0,43,37.87C105.45,133.65,104.79,133.55,104.14,133.44Z"/><path class="cls-6" d="M108.24,134l-1.74-.19C107.08,133.86,107.66,133.92,108.24,134Z"/><path class="cls-6" d="M110.49,134.13l-1.32-.09Z"/></g><path class="cls-7" d="M83.46,18.87l-13,1.62L54.36,26.78,47,30.93A21.85,21.85,0,1,0,83.46,18.87Z"/><path class="cls-8" d="M154.54,71.76A69.39,69.39,0,0,0,86.95,17.09a69.68,69.68,0,0,0-14.68,1.57,69.2,69.2,0,1,0,82.26,53.09Zm-30.75,4.56a5.41,5.41,0,0,0-3.34-2.59A122.79,122.79,0,0,0,112.3,51l-.25-.51a5.41,5.41,0,0,0,.93-2l19.37-4.18a5.39,5.39,0,0,0,4.23,1,5,5,0,0,0,.52-.13A61.82,61.82,0,0,1,149,67.75a5.41,5.41,0,0,0-2.6,3.69ZM97.89,116.2A5.42,5.42,0,0,0,95,114.34L89.81,90.43a5.41,5.41,0,0,0,2.34-3.15l22.74-4.9a5.41,5.41,0,0,0,3.58,2,127.69,127.69,0,0,1,2,24,5.39,5.39,0,0,0-3.78,3.8Zm-27.65,6a5.4,5.4,0,0,0-5-2,115.75,115.75,0,0,1-8.08-22.74,5.4,5.4,0,0,0,2.42-3.16l23.16-5a5.42,5.42,0,0,0,3.05,1.86L91,114.95a5.41,5.41,0,0,0-2.49,3.28ZM42,128.25a5.39,5.39,0,0,0-4.59-1.15,5,5,0,0,0-.84.29,64.21,64.21,0,0,1-12-22.52,5.41,5.41,0,0,0,2.21-3.52l23.51-5.07A5.41,5.41,0,0,0,53,98a123.81,123.81,0,0,0,8.39,23.66l.29.59a5.41,5.41,0,0,0-.93,1.92ZM75.66,56.52a5.43,5.43,0,0,0,3.13,2l4.95,23a5.42,5.42,0,0,0-2.19,4L59.17,90.24a5.4,5.4,0,0,0-4.08-2.8,127.09,127.09,0,0,1-1.84-23,5.4,5.4,0,0,0,3.82-3.93Zm27.72-6a5.4,5.4,0,0,0,5.12,2.07,115.82,115.82,0,0,1,7.8,21.7,5.4,5.4,0,0,0-2.6,4.17l-22,4.75a5.4,5.4,0,0,0-4-2.75L82.78,57.83a5.41,5.41,0,0,0,2.43-3.36ZM94.7,21.75a64.4,64.4,0,0,1,35.09,15.77l.73.65a5.31,5.31,0,0,0-.3,2.3l-18,3.88a5.41,5.41,0,0,0-4.76-2.48A63,63,0,0,0,93.3,25.07L88.16,21Zm-17.06.74c8.65.7,17.89,8.21,26,21.14l0,0a5.42,5.42,0,0,0-1.32,2.82L84.52,50.33a5.41,5.41,0,0,0-3.88-2.46L75.12,22.29ZM69,24.36l2.2-1.22,5.55,25.74a5.42,5.42,0,0,0-2.12,3.59L56.41,56.39A5.42,5.42,0,0,0,54,54.28C55.82,39.52,61.28,28.62,69,24.36ZM53.11,30.71l5.63-3.41-3,5.86a64.8,64.8,0,0,0-6,21.08,5.41,5.41,0,0,0-3.3,4.29L28.7,62.36a5.35,5.35,0,0,0-1.49-1.88l.42-.93A64.41,64.41,0,0,1,53.11,30.71ZM23.87,70.09A5.09,5.09,0,0,0,24.94,70a5.41,5.41,0,0,0,3.93-3.37l18.7-4A5.42,5.42,0,0,0,49,63.86v.75a122.65,122.65,0,0,0,2.06,24,5.41,5.41,0,0,0-2,3.84l-23.13,5a5.4,5.4,0,0,0-3.43-2.22A66.35,66.35,0,0,1,23.87,70.09ZM79,150.94a64.41,64.41,0,0,1-35.09-15.77l-.51-.45a5.36,5.36,0,0,0,.52-2.6l17.48-3.77a5.4,5.4,0,0,0,4.89,2.58,62.92,62.92,0,0,0,14.12,16.69l5.14,4.11Zm17.06-.75c-8.64-.7-17.87-8.2-26-21.11a5.41,5.41,0,0,0,1.29-2.89l17.68-3.81A5.4,5.4,0,0,0,93.12,125L98.6,150.4Zm8.67-1.87-2.2,1.22L97,123.87a5.41,5.41,0,0,0,2-3.64l18.18-3.92a5.41,5.41,0,0,0,2.48,2.21C117.87,133.23,112.42,144.09,104.75,148.33ZM120.61,142,115,145.39l3-5.86a64.69,64.69,0,0,0,6-20.95,5.41,5.41,0,0,0,3.33-4.42l17.67-3.81a5.35,5.35,0,0,0,1.53,2l-.37.83A64.42,64.42,0,0,1,120.61,142Zm29.21-39.25a5.06,5.06,0,0,0-.91.07,5.41,5.41,0,0,0-4,3.28l-18.8,4.05a5.42,5.42,0,0,0-1.33-1.18v-.88a122.62,122.62,0,0,0-2.23-24.95,5.41,5.41,0,0,0,1.79-2.78l22.88-4.93a5.42,5.42,0,0,0,4.1,2.4A66.33,66.33,0,0,1,149.82,102.73Z"/></g></g></svg>