<svg xmlns="http://www.w3.org/2000/svg" viewBox="0 0 317.51 117.11"><defs><style>.cls-1{fill:#0089b6;}.cls-2,.cls-4,.cls-5,.cls-6{fill:#00a6e3;}.cls-3{fill:#fff;}.cls-4{opacity:0.2;}.cls-5{opacity:0.6;}.cls-6{opacity:0.4;}.cls-7{opacity:0.8;}.cls-8{fill:#e2ebef;}</style></defs><title>logo-horizontal-darkbg</title><g id="Layer_2" data-name="Layer 2"><g id="Layer_1-2" data-name="Layer 1"><path class="cls-1" d="M144.72,34a19.91,19.91,0,0,0-8,1.65,20.23,20.23,0,0,0-7,5.3,24.1,24.1,0,0,0-3.43,9.46V80.27a2.87,2.87,0,0,0,2.87,2.87h0A2.87,2.87,0,0,0,132,80.27V65.42a18.21,18.21,0,0,0,5.12,3.78,17.54,17.54,0,0,0,7.74,1.72,17.25,17.25,0,0,0,12.75-5.43,18.19,18.19,0,0,0,5.29-13.13,18.4,18.4,0,0,0-5.18-12.85A17.48,17.48,0,0,0,144.72,34Zm12.37,18.53A13.26,13.26,0,0,1,155.34,59,12.54,12.54,0,0,1,138,63.84a11.94,11.94,0,0,1-4.66-4.63,13.34,13.34,0,0,1-1.64-6.58,12.84,12.84,0,0,1,3.68-9.34,12,12,0,0,1,9-3.74,12.44,12.44,0,0,1,6.38,1.7A12.67,12.67,0,0,1,155.36,46,13,13,0,0,1,157.08,52.51Z"/><path class="cls-1" d="M183.47,59.73,173.06,36.39a2.81,2.81,0,0,0-2.57-1.67h0a2.81,2.81,0,0,0-2.57,3.95l12.44,28-5.09,11.66a2.81,2.81,0,0,0,2.58,3.94h0a2.81,2.81,0,0,0,2.58-1.69L198.77,38.7a2.84,2.84,0,0,0-2.6-4h0a2.84,2.84,0,0,0-2.61,1.71Z"/><path class="cls-2" d="M222.15,38.64a14.41,14.41,0,0,1,11.14,4.68,2.08,2.08,0,0,0,2.63.32h0a2.12,2.12,0,0,0,.54-3.13,13.65,13.65,0,0,0-2.35-2.27,18,18,0,0,0-5.32-2.67,20.73,20.73,0,0,0-6.46-1,19.77,19.77,0,0,0-9.67,2.36,17.85,17.85,0,0,0-9.27,15.71A16.51,16.51,0,0,0,208.69,65,18.38,18.38,0,0,0,222,70.09a21,21,0,0,0,9.33-2,16.49,16.49,0,0,0,5-3.72,2.11,2.11,0,0,0-.44-3.17h0a2.07,2.07,0,0,0-2.62.27,14.76,14.76,0,0,1-11.11,4.66,15,15,0,0,1-7.34-1.79,13,13,0,0,1-5.15-5.07,13.83,13.83,0,0,1-1.88-7A13.62,13.62,0,0,1,212,42.45,14.16,14.16,0,0,1,222.15,38.64Z"/><path class="cls-2" d="M254.87,50q-4-2-5.21-3.61a4.71,4.71,0,0,1-1.26-3.08A4.34,4.34,0,0,1,249.9,40a5.2,5.2,0,0,1,3.64-1.39,8.9,8.9,0,0,1,5.46,2.2,2,2,0,0,0,2.68-.19h0a2,2,0,0,0-.21-3,12.47,12.47,0,0,0-7.74-3.1,9.15,9.15,0,0,0-6.61,2.54,8.52,8.52,0,0,0-2.64,6.4,8.67,8.67,0,0,0,1.66,5.24q1.63,2.35,6.23,4.66,4.26,2.19,5.46,3.64a5.06,5.06,0,0,1,1.2,3.33,5.18,5.18,0,0,1-1.83,3.93A6.32,6.32,0,0,1,252.77,66a8.45,8.45,0,0,1-5.53-2.25,2.14,2.14,0,0,0-3,.17h0a2.11,2.11,0,0,0,.11,2.93,12,12,0,0,0,3,2,13,13,0,0,0,5.6,1.25,10,10,0,0,0,7.29-2.88,9.5,9.5,0,0,0,2.91-7,9,9,0,0,0-1.7-5.34Q259.74,52.51,254.87,50Z"/><path class="cls-2" d="M313.5,37.56l-10,23.31L292.71,36.29h-.77L281.08,60.87l-9.83-23.32a2.05,2.05,0,0,0-1.89-1.26h0a2.05,2.05,0,0,0-1.89,2.86l13.21,31h.8l10.85-24.21,10.73,24.21h.86l13.41-30.9a2.09,2.09,0,0,0-1.92-2.92h0A2.09,2.09,0,0,0,313.5,37.56Z"/><path class="cls-3" d="M61,102.44l1.43-.11.68-.06c.62-.07,1.24-.14,1.85-.24l.76-.13,1.13-.2,1-.2.88-.2A44.61,44.61,0,0,0,94.6,83.89l.49-.69.6-.9.47-.74.56-.91.46-.79c.17-.3.34-.6.51-.91s.33-.64.49-1,.46-.92.67-1.39.33-.71.48-1.07.23-.57.35-.85.27-.67.4-1,.21-.57.31-.86.25-.71.36-1.07.18-.55.26-.83.25-.85.36-1.28c.06-.22.12-.44.18-.66q.24-1,.45-1.93c0-.2.07-.4.11-.59.09-.48.18-1,.26-1.44,0-.25.07-.5.11-.75q.09-.66.17-1.33c0-.26.06-.51.08-.77,0-.47.08-1,.11-1.43,0-.22,0-.45,0-.67,0-.7.05-1.4.05-2.11s0-1.39-.05-2.07c0-.12,0-.24,0-.36q-.05-1-.15-2l0-.38c-.07-.67-.15-1.33-.25-2l0-.12c-.1-.64-.21-1.27-.34-1.9l-.06-.32q-.2-.94-.43-1.87l-.1-.38c-.16-.62-.34-1.24-.53-1.85l-.07-.21q-.28-.87-.59-1.73l-.1-.28c-.22-.59-.45-1.17-.69-1.75l-.16-.37c-.25-.57-.5-1.14-.77-1.71l-.13-.26q-.39-.79-.8-1.57l-.13-.24c-.3-.54-.61-1.08-.93-1.61l-.22-.36q-.48-.78-1-1.54l-.2-.29q-.49-.72-1-1.42L94,31.21c-.37-.49-.75-1-1.14-1.45l-.27-.33q-.58-.69-1.18-1.36l-.27-.3q-.6-.65-1.22-1.27l-.12-.12c-.43-.43-.88-.85-1.33-1.27l-.31-.29q-.67-.6-1.35-1.17l-.33-.27c-.48-.39-1-.77-1.45-1.14h0a44.39,44.39,0,0,0-26.71-8.88c-.55,0-1.1,0-1.65,0-.23-.25-.47-.5-.72-.74l-8.74,1.09L36.46,18l-5,2.78a14.71,14.71,0,0,0-.19,1.74A44.58,44.58,0,0,0,16.9,74.4l.15.38c.18.44.37.88.56,1.31l.21.48q.29.64.6,1.26l.23.45c.22.43.44.86.68,1.28l.12.2A44.62,44.62,0,0,0,22,83.81l.31.43c.25.35.52.69.78,1l.41.52.79,1,.46.53c.27.31.54.62.82.92l.46.49q1.43,1.5,3,2.87l.64.55.83.68.72.56.83.62.79.56.82.56.9.58.76.48q.81.49,1.64.94l.66.34,1.13.58.77.36,1.07.48.8.34,1.11.44.78.29,1.25.42.67.22c.64.2,1.28.38,1.93.55l.35.08c.55.14,1.1.27,1.66.38l.71.14,1.34.24.79.12,1.32.17.79.08,1.43.11.69,0c.7,0,1.41.05,2.12.05h0c.68,0,1.36,0,2-.05Z"/><circle class="cls-4" cx="58.34" cy="57.94" r="44.59"/><path class="cls-3" d="M48.63,13.26c.89-.19,1.79-.35,2.68-.49l-.93-4.29a2.72,2.72,0,1,0-5.32,1.15L46,13.91C46.86,13.67,47.74,13.45,48.63,13.26Z"/><path class="cls-3" d="M67.9,102.65c-.89.19-1.79.35-2.68.49l.93,4.29a2.72,2.72,0,1,0,5.32-1.15L70.54,102C69.67,102.23,68.79,102.46,67.9,102.65Z"/><path class="cls-3" d="M59.23,117.11A59.24,59.24,0,0,1,46.43,0,1.51,1.51,0,1,1,47.08,3,56.23,56.23,0,0,0,59.23,114.1a56.64,56.64,0,0,0,11.84-1.25,1.51,1.51,0,0,1,.63,2.95A59.68,59.68,0,0,1,59.23,117.11Z"/><path class="cls-5" d="M42.31,64.26a36.26,36.26,0,0,0-27,5.21,44.62,44.62,0,0,0,56,31.15c0-.29,0-.57,0-.85a36.21,36.21,0,0,0-1.48-10.26A34.56,34.56,0,0,1,42.31,64.26Z"/><path class="cls-6" d="M85.06,22.23a34.54,34.54,0,0,0-42.75,42A36.27,36.27,0,0,1,69.84,89.49a34.72,34.72,0,0,0,5.86.51,34.36,34.36,0,0,0,18.24-5.21,44.59,44.59,0,0,0-8.89-62.55Z"/><g class="cls-7"><path class="cls-2" d="M69.84,89.49A36.27,36.27,0,0,0,42.31,64.26c-.18-.68-.17-.65,0,0a34.55,34.55,0,0,0,28.85,25.4Z"/><path class="cls-2" d="M72.59,89.85l-1.17-.13Z"/><path class="cls-2" d="M74.1,90l-.88-.06Z"/></g><path class="cls-8" d="M56,12.65l-8.74,1.09L36.46,18l-5,2.78A14.65,14.65,0,1,0,56,12.65Z"/><path class="cls-1" d="M103.65,48.13A46.54,46.54,0,0,0,58.32,11.47a46.73,46.73,0,0,0-9.84,1.05,46.41,46.41,0,1,0,55.17,35.61ZM83,51.19a3.63,3.63,0,0,0-2.24-1.73A82.35,82.35,0,0,0,75.31,34.2l-.17-.34a3.63,3.63,0,0,0,.62-1.35l13-2.8a3.62,3.62,0,0,0,2.84.68l.35-.09a41.46,41.46,0,0,1,8,15.13,3.63,3.63,0,0,0-1.75,2.48ZM65.66,77.93a3.63,3.63,0,0,0-2-1.25l-3.46-16a3.63,3.63,0,0,0,1.57-2.11l15.25-3.29a3.63,3.63,0,0,0,2.4,1.31,85.64,85.64,0,0,1,1.34,16.11,3.62,3.62,0,0,0-2.54,2.55Zm-18.54,4a3.62,3.62,0,0,0-3.33-1.32,77.63,77.63,0,0,1-5.42-15.25A3.62,3.62,0,0,0,40,63.23l15.53-3.35a3.64,3.64,0,0,0,2,1.25l3.44,16a3.63,3.63,0,0,0-1.67,2.2ZM28.15,86a3.62,3.62,0,0,0-3.08-.77,3.34,3.34,0,0,0-.56.2,43.06,43.06,0,0,1-8-15.11A3.63,3.63,0,0,0,18,68l15.77-3.4a3.63,3.63,0,0,0,1.84,1.16A83,83,0,0,0,41.2,81.62l.19.39a3.63,3.63,0,0,0-.62,1.29Zm22.6-48.11a3.64,3.64,0,0,0,2.1,1.34l3.32,15.39a3.63,3.63,0,0,0-1.47,2.65l-15,3.23A3.62,3.62,0,0,0,37,58.65a85.23,85.23,0,0,1-1.23-15.42,3.62,3.62,0,0,0,2.56-2.64Zm18.59-4a3.62,3.62,0,0,0,3.43,1.39A77.68,77.68,0,0,1,78,49.85a3.62,3.62,0,0,0-1.75,2.8L61.48,55.83A3.62,3.62,0,0,0,58.8,54l-3.28-15.2a3.63,3.63,0,0,0,1.63-2.26ZM63.51,14.59A43.19,43.19,0,0,1,87,25.17l.49.44a3.56,3.56,0,0,0-.2,1.55l-12.06,2.6a3.63,3.63,0,0,0-3.19-1.66,42.27,42.27,0,0,0-9.51-11.27l-3.45-2.76Zm-11.44.5c5.8.47,12,5.51,17.45,14.18v0a3.63,3.63,0,0,0-.89,1.89l-12,2.58a3.63,3.63,0,0,0-2.6-1.65l-3.7-17.15Zm-5.81,1.25,1.48-.82,3.72,17.26A3.64,3.64,0,0,0,50,35.19L37.83,37.82a3.63,3.63,0,0,0-1.63-1.41C37.44,26.5,41.1,19.19,46.25,16.34ZM35.62,20.6l3.78-2.29-2,3.93a43.46,43.46,0,0,0-4,14.14,3.63,3.63,0,0,0-2.21,2.88L19.25,41.82a3.59,3.59,0,0,0-1-1.26l.28-.63A43.2,43.2,0,0,1,35.62,20.6ZM16,47a3.42,3.42,0,0,0,.72-.07,3.63,3.63,0,0,0,2.63-2.26L31.9,42a3.64,3.64,0,0,0,1,.86v.5a82.26,82.26,0,0,0,1.38,16.08A3.63,3.63,0,0,0,32.88,62L17.37,65.33a3.62,3.62,0,0,0-2.3-1.49A44.5,44.5,0,0,1,16,47Zm37,54.23A43.2,43.2,0,0,1,29.46,90.65l-.34-.3a3.59,3.59,0,0,0,.35-1.74l11.72-2.53a3.62,3.62,0,0,0,3.28,1.73A42.2,42.2,0,0,0,53.93,99l3.45,2.76Zm11.44-.5c-5.8-.47-12-5.5-17.43-14.16a3.63,3.63,0,0,0,.86-1.94l11.86-2.56a3.62,3.62,0,0,0,2.72,1.73l3.68,17.05Zm5.81-1.25-1.48.82L65.07,83.08a3.63,3.63,0,0,0,1.37-2.44L78.63,78a3.63,3.63,0,0,0,1.66,1.48C79.05,89.35,75.4,96.64,70.26,99.48Zm10.63-4.26-3.78,2.29,2-3.93a43.39,43.39,0,0,0,4-14.05,3.63,3.63,0,0,0,2.23-3L97.2,74a3.59,3.59,0,0,0,1,1.32l-.25.56A43.2,43.2,0,0,1,80.89,95.22ZM100.48,68.9a3.4,3.4,0,0,0-.61,0,3.63,3.63,0,0,0-2.71,2.2L84.55,73.86a3.64,3.64,0,0,0-.89-.79v-.59a82.24,82.24,0,0,0-1.5-16.73,3.63,3.63,0,0,0,1.2-1.87l15.35-3.31a3.64,3.64,0,0,0,2.75,1.61A44.49,44.49,0,0,1,100.48,68.9Z"/></g></g></svg>