<?xml version="1.0" standalone="no"?>
<!DOCTYPE svg PUBLIC "-//W3C//DTD SVG 20010904//EN"
 "http://www.w3.org/TR/2001/REC-SVG-20010904/DTD/svg10.dtd">
<svg version="1.0" xmlns="http://www.w3.org/2000/svg"
 width="260.000000pt" height="260.000000pt" viewBox="0 0 260.000000 260.000000"
 preserveAspectRatio="xMidYMid meet">
<metadata>
Created by potrace 1.11, written by Peter Selinger 2001-2013
</metadata>
<g transform="translate(0.000000,260.000000) scale(0.100000,-0.100000)"
fill="#000000" stroke="none">
<path d="M1050 2571 c-377 -123 -689 -417 -829 -780 -67 -174 -85 -277 -85
-486 -1 -131 4 -179 23 -265 118 -531 534 -930 1068 -1025 90 -16 329 -18 423
-3 69 10 110 29 106 50 -4 32 -18 39 -60 33 -22 -3 -68 -9 -101 -14 -88 -13
-289 -6 -375 14 -41 9 -85 18 -98 21 -51 10 -186 65 -259 104 -300 162 -526
444 -611 763 -35 128 -43 191 -44 317 -2 208 40 387 132 570 151 301 448 550
759 636 92 25 107 33 108 57 4 45 -38 47 -157 8z"/>
<path d="M1146 2441 c-14 -15 -17 -33 -14 -76 l3 -57 -76 -28 c-320 -117 -564
-402 -646 -752 -23 -103 -23 -320 1 -437 10 -48 60 -187 84 -236 99 -197 280
-376 474 -468 167 -79 293 -106 481 -104 l128 2 7 -30 c3 -16 5 -33 4 -36 0
-4 10 -19 23 -33 18 -20 31 -25 52 -22 52 10 66 46 48 122 -7 31 -6 32 46 49
72 24 180 79 254 128 78 54 210 186 262 263 94 139 162 318 177 464 1 14 5 30
8 36 10 15 6 184 -4 184 -5 0 -8 6 -6 13 4 23 -13 112 -39 197 -133 448 -583
758 -1050 726 l-92 -6 -7 37 c-10 60 -29 83 -68 83 -20 0 -40 -8 -50 -19z"/>
</g>
</svg>
